<svg xmlns="http://www.w3.org/2000/svg" width="64" height="64" viewBox="0 0 16.933 16.933"><path fill="#d40000" d="M0 0h16.961v16.933H0z"/><path d="M8.48 3.917a4.55 4.55 0 00-4.55 4.55 4.55 4.55 0 004.55 4.55 4.55 4.55 0 004.55-4.55c0-.253-.02-.506-.065-.759-.137-.253-.44-.253-.44-.253h-1.011V6.95c0-.506-.506-.506-.506-.506h-1.01V5.94c0-.506-.506-.506-.506-.506h-.506v-1.01c0-.506-.506-.506-.506-.506M7.217 5.433a.758.758 0 01.758.759.758.758 0 01-.758.758.758.758 0 01-.759-.758.758.758 0 01.759-.759M5.7 7.455a.758.758 0 01.758.759.758.758 0 01-.758.758.758.758 0 01-.758-.758.758.758 0 01.758-.759m2.528.506a.758.758 0 01.758.758.758.758 0 01-.758.759.758.758 0 01-.759-.759.758.758 0 01.759-.758m2.527 1.011a.758.758 0 01.759.758.758.758 0 01-.759.759.758.758 0 01-.758-.759.758.758 0 01.758-.758m-2.78 1.517a.758.758 0 01.758.758.758.758 0 01-.758.758.758.758 0 01-.758-.758.758.758 0 01.758-.758z" fill="#fff"/></svg>