<svg xmlns="http://www.w3.org/2000/svg" viewBox="0 0 16 16"><path fill="#FFF" d="M1 1h14v14H1V1z"/><path fill="#999" d="M1 1v14h14V1H1zm1 1h12v12H2V2z"/><path d="M8 3.424A4.576 4.576 0 003.424 8 4.576 4.576 0 008 12.576 4.576 4.576 0 0012.576 8c0-.254-.02-.508-.066-.763-.137-.254-.442-.254-.442-.254H11.05v-.508c0-.509-.509-.509-.509-.509H9.525v-.508c0-.509-.508-.509-.508-.509h-.509V3.932c0-.508-.508-.508-.508-.508M6.729 4.949a.763.763 0 01.763.763.763.763 0 01-.763.763.763.763 0 01-.763-.763.763.763 0 01.763-.763M5.203 6.983a.763.763 0 01.763.763.763.763 0 01-.763.762.763.763 0 01-.762-.762.763.763 0 01.762-.763m2.543.509a.763.763 0 01.762.762.763.763 0 01-.762.763.763.763 0 01-.763-.763.763.763 0 01.763-.762m2.542 1.016a.763.763 0 01.763.763.763.763 0 01-.763.763.763.763 0 01-.763-.763.763.763 0 01.763-.763m-2.796 1.526a.763.763 0 01.762.763.763.763 0 01-.762.762.763.763 0 01-.763-.762.763.763 0 01.763-.763z" fill="#d40000"/></svg>