<svg xmlns="http://www.w3.org/2000/svg" width="24" height="24"><path d="M7.828 2.28a5.147 5.147 0 00-5.147 5.147 5.147 5.147 0 005.147 5.147 5.147 5.147 0 005.147-5.147 4.83 4.83 0 00-.074-.858c-.154-.286-.498-.286-.498-.286H11.26v-.572c0-.572-.572-.572-.572-.572H9.544v-.572c0-.572-.572-.572-.572-.572H8.4V2.852c0-.572-.572-.572-.572-.572m-1.43 1.715a.858.858 0 01.858.858.858.858 0 01-.858.858.858.858 0 01-.857-.858.858.858 0 01.857-.858M4.683 6.283a.858.858 0 01.858.858.858.858 0 01-.858.858.858.858 0 01-.858-.858.858.858 0 01.858-.858m2.86.572a.858.858 0 01.857.858.858.858 0 01-.858.858.858.858 0 01-.858-.858.858.858 0 01.858-.858m2.86 1.144a.858.858 0 01.858.858.858.858 0 01-.858.857.858.858 0 01-.858-.857.858.858 0 01.858-.858M7.256 9.714a.858.858 0 01.858.858.858.858 0 01-.858.858.858.858 0 01-.858-.858.858.858 0 01.858-.858z" fill="#666"/><g><path d="M12.582 7.84h12.19v2.577h-4.386v10.648h-3.41V10.417h-4.394z" transform="matrix(.87344 0 0 .99561 .703 -.029)" fill="#666" stroke="#fff" stroke-width=".454"/></g></svg>
