<svg xmlns="http://www.w3.org/2000/svg" width="24" height="24"><path d="M7.828 2.28a5.147 5.147 0 00-5.147 5.147 5.147 5.147 0 005.147 5.147 5.147 5.147 0 005.147-5.147 4.83 4.83 0 00-.074-.858c-.154-.286-.498-.286-.498-.286H11.26v-.572c0-.572-.572-.572-.572-.572H9.544v-.572c0-.572-.572-.572-.572-.572H8.4V2.852c0-.572-.572-.572-.572-.572m-1.43 1.715a.858.858 0 01.858.858.858.858 0 01-.858.858.858.858 0 01-.857-.858.858.858 0 01.857-.858M4.683 6.283a.858.858 0 01.858.858.858.858 0 01-.858.858.858.858 0 01-.858-.858.858.858 0 01.858-.858m2.86.572a.858.858 0 01.857.858.858.858 0 01-.858.858.858.858 0 01-.858-.858.858.858 0 01.858-.858m2.86 1.144a.858.858 0 01.858.858.858.858 0 01-.858.857.858.858 0 01-.858-.857.858.858 0 01.858-.858M7.256 9.714a.858.858 0 01.858.858.858.858 0 01-.858.858.858.858 0 01-.858-.858.858.858 0 01.858-.858z" fill="#666"/><g><path d="M12.853 7.647h5.395q2.406 0 3.69 1.073 1.291 1.063 1.291 3.04 0 1.983-1.291 3.055-1.284 1.064-3.69 1.064h-2.144v4.373h-3.25zm3.25 2.356v3.52h1.799q.945 0 1.46-.455.515-.465.515-1.309 0-.844-.515-1.3-.515-.456-1.46-.456z" transform="matrix(.91946 0 0 1.0876 -.319 -.72)" fill="#666" stroke="#fff" stroke-width=".432"/></g></svg>
